# xmcd
#
# Track frame offsets:
#	150
#	10227
#	34555
#	48112
#	55974
#	64436
#	88485
#	98268
#	113007
#	135177
#	158021
#	177889
#	191673
#	213699
#	228619
#
# Disc length: 3379 seconds
# Revision: 0
# Processed by: cddbd v1.5.2PL0 Copyright (c) Steve Scherf et al.
# Submitted via: dBpowerAMP V12.0
#
DISCID=c30d310f
DTITLE=Various Artist - Complete Sister Rosetta Tharpe (1960-1961) - Vol 7
DYEAR=2012
DGENRE=Gospel
TTITLE0=Sister Rosetta Tharpe and Chris Barber Jazz Band - Joshua Fit The Battle Of Jericho
TTITLE1=Sister Rosetta Tharpe and Chris Barber Jazz Band - Peace In The Valley
TTITLE2=Sister Rosetta Tharpe and Chris Barber Jazz Band - Up Above My Head, I Hear Music In The Air
TTITLE3=Sister Rosetta Tharpe - I Can't Sit Down
TTITLE4=Sister Rosetta Tharpe - He's Got The Whole World In His Hands
TTITLE5=Sister Rosetta Tharpe - When I Take My Vacation In Heaven
TTITLE6=Sister Rosetta Tharpe - Didn't It Rain
TTITLE7=Sister Rosetta Tharpe - Can't No Grave Hold My Dody Down
TTITLE8=Sister Rosetta Tharpe - Two Little Fishes, Five Loaves Of Bread
TTITLE9=Sister Rosetta Tharpe - This Train
TTITLE10=Sister Rosetta Tharpe - Take My Hand, Precious Lord
TTITLE11=Sister Rosetta Tharpe - Down By The Riverside
TTITLE12=Sister Rosetta Tharpe - Mansion In The Sky
TTITLE13=Sister Rosetta Tharpe - Is Everybody Happy?
TTITLE14=Sister Rosetta Tharpe - Peace In The Valley
EXTD=
EXTT0=
EXTT1=
EXTT2=
EXTT3=
EXTT4=
EXTT5=
EXTT6=
EXTT7=
EXTT8=
EXTT9=
EXTT10=
EXTT11=
EXTT12=
EXTT13=
EXTT14=
PLAYORDER=
